<mxfile host="65bd71144e">
    <diagram id="GUkRdUyIuSBApQzKnwvI" name="Page-1">
        <mxGraphModel dx="793" dy="240" grid="1" gridSize="5" guides="1" tooltips="1" connect="1" arrows="1" fold="1" page="0" pageScale="1" pageWidth="1169" pageHeight="827" math="0" shadow="0">
            <root>
                <mxCell id="0"/>
                <mxCell id="1" parent="0"/>
                <mxCell id="60" style="edgeStyle=none;rounded=0;html=1;exitX=1;exitY=1;exitDx=0;exitDy=0;entryX=0;entryY=1;entryDx=0;entryDy=0;endArrow=none;endFill=0;fillColor=#d5e8d4;strokeColor=#82b366;" edge="1" parent="1" source="25" target="58">
                    <mxGeometry relative="1" as="geometry"/>
                </mxCell>
                <mxCell id="25" value="" style="rounded=0;whiteSpace=wrap;html=1;fillColor=#d5e8d4;strokeColor=#82b366;" parent="1" vertex="1">
                    <mxGeometry x="220" y="220" width="40" height="200" as="geometry"/>
                </mxCell>
                <mxCell id="59" style="edgeStyle=none;html=1;exitX=1;exitY=0;exitDx=0;exitDy=0;entryX=0;entryY=0;entryDx=0;entryDy=0;rounded=0;endArrow=none;endFill=0;fillColor=#d5e8d4;strokeColor=#82b366;" edge="1" parent="1" source="28" target="58">
                    <mxGeometry relative="1" as="geometry"/>
                </mxCell>
                <mxCell id="28" value="Power" style="rounded=0;whiteSpace=wrap;html=1;fontSize=8;align=left;" parent="1" vertex="1">
                    <mxGeometry x="220" y="220" width="35" height="15" as="geometry"/>
                </mxCell>
                <mxCell id="66" style="edgeStyle=none;rounded=0;html=1;exitX=1;exitY=0.5;exitDx=0;exitDy=0;endArrow=none;endFill=0;" edge="1" parent="1" source="31">
                    <mxGeometry relative="1" as="geometry">
                        <mxPoint x="380" y="242.66666666666669" as="targetPoint"/>
                    </mxGeometry>
                </mxCell>
                <mxCell id="31" value="Audio" style="rounded=0;whiteSpace=wrap;html=1;fontSize=8;align=left;" parent="1" vertex="1">
                    <mxGeometry x="220" y="235" width="35" height="15" as="geometry"/>
                </mxCell>
                <mxCell id="65" style="edgeStyle=none;rounded=0;html=1;exitX=1;exitY=0.5;exitDx=0;exitDy=0;endArrow=none;endFill=0;" edge="1" parent="1" source="32">
                    <mxGeometry relative="1" as="geometry">
                        <mxPoint x="380" y="257.6666666666667" as="targetPoint"/>
                    </mxGeometry>
                </mxCell>
                <mxCell id="32" value="Video" style="rounded=0;whiteSpace=wrap;html=1;fontSize=8;align=left;" parent="1" vertex="1">
                    <mxGeometry x="220" y="250" width="35" height="15" as="geometry"/>
                </mxCell>
                <mxCell id="64" style="edgeStyle=none;rounded=0;html=1;exitX=1;exitY=0.5;exitDx=0;exitDy=0;endArrow=none;endFill=0;" edge="1" parent="1" source="40">
                    <mxGeometry relative="1" as="geometry">
                        <mxPoint x="380" y="272.6666666666667" as="targetPoint"/>
                    </mxGeometry>
                </mxCell>
                <mxCell id="40" value="Generic" style="rounded=0;whiteSpace=wrap;html=1;fontSize=8;align=left;" parent="1" vertex="1">
                    <mxGeometry x="220" y="265" width="35" height="15" as="geometry"/>
                </mxCell>
                <mxCell id="62" style="edgeStyle=none;rounded=0;html=1;exitX=1;exitY=0.5;exitDx=0;exitDy=0;entryX=0.5;entryY=0;entryDx=0;entryDy=0;endArrow=none;endFill=0;" edge="1" parent="1" source="46" target="61">
                    <mxGeometry relative="1" as="geometry">
                        <Array as="points">
                            <mxPoint x="310" y="288"/>
                        </Array>
                    </mxGeometry>
                </mxCell>
                <mxCell id="63" style="edgeStyle=none;rounded=0;html=1;exitX=1;exitY=0.5;exitDx=0;exitDy=0;endArrow=none;endFill=0;" edge="1" parent="1" source="46">
                    <mxGeometry relative="1" as="geometry">
                        <mxPoint x="380" y="287.6666666666667" as="targetPoint"/>
                    </mxGeometry>
                </mxCell>
                <mxCell id="46" value="IÂ²C" style="rounded=0;whiteSpace=wrap;html=1;fontSize=8;align=left;" parent="1" vertex="1">
                    <mxGeometry x="220" y="280" width="35" height="15" as="geometry"/>
                </mxCell>
                <mxCell id="67" style="edgeStyle=none;rounded=0;html=1;exitX=1;exitY=0.5;exitDx=0;exitDy=0;endArrow=none;endFill=0;" edge="1" parent="1" source="51">
                    <mxGeometry relative="1" as="geometry">
                        <mxPoint x="380" y="302.6666666666667" as="targetPoint"/>
                    </mxGeometry>
                </mxCell>
                <mxCell id="51" value="IRQ" style="rounded=0;whiteSpace=wrap;html=1;fontSize=8;align=left;" parent="1" vertex="1">
                    <mxGeometry x="220" y="295" width="35" height="15" as="geometry"/>
                </mxCell>
                <mxCell id="52" value="Detect" style="rounded=0;whiteSpace=wrap;html=1;fontSize=8;align=left;" parent="1" vertex="1">
                    <mxGeometry x="220" y="310" width="35" height="15" as="geometry"/>
                </mxCell>
                <mxCell id="58" value="Frontpanel" style="rounded=0;whiteSpace=wrap;html=1;fillColor=#d5e8d4;strokeColor=#82b366;horizontal=0;" vertex="1" parent="1">
                    <mxGeometry x="620" y="220" width="40" height="200" as="geometry"/>
                </mxCell>
                <mxCell id="61" value="EEPROM" style="rounded=0;whiteSpace=wrap;html=1;" vertex="1" parent="1">
                    <mxGeometry x="280" y="340" width="60" height="40" as="geometry"/>
                </mxCell>
                <mxCell id="68" style="edgeStyle=none;rounded=0;html=1;exitX=1;exitY=0.75;exitDx=0;exitDy=0;entryX=1;entryY=0.25;entryDx=0;entryDy=0;endArrow=none;endFill=0;" edge="1" parent="1" source="52" target="52">
                    <mxGeometry relative="1" as="geometry">
                        <Array as="points">
                            <mxPoint x="270" y="321"/>
                            <mxPoint x="270" y="314"/>
                        </Array>
                    </mxGeometry>
                </mxCell>
                <mxCell id="71" value="Loopback" style="edgeLabel;html=1;align=center;verticalAlign=middle;resizable=0;points=[];fontSize=8;" vertex="1" connectable="0" parent="68">
                    <mxGeometry x="-0.4898" relative="1" as="geometry">
                        <mxPoint x="24" y="-3" as="offset"/>
                    </mxGeometry>
                </mxCell>
                <mxCell id="69" value="Application&lt;br&gt;Defined" style="rounded=0;whiteSpace=wrap;html=1;fillColor=#e1d5e7;strokeColor=#9673a6;" vertex="1" parent="1">
                    <mxGeometry x="380" y="230" width="230" height="180" as="geometry"/>
                </mxCell>
            </root>
        </mxGraphModel>
    </diagram>
</mxfile>